# xmcd CD database file
#
# Track frame offsets:
#	150
#	29148
#	44943
#	72014
#	96525
#	125033
#	146617
#	151906
#	181204
#
# Disc length: 2690 seconds
#
# Revision: 0
# Processed by: cddbd v1.5.2PL0 Copyright (c) Steve Scherf et al.
# Submitted via: CDex 1.94
#
DISCID=8a0a8009
DTITLE=Tobias Meinhart Quartet - In Between
DYEAR=2014
DGENRE=Jazz
TTITLE0=In Between
TTITLE1=Be Free
TTITLE2=Fly
TTITLE3=Sco lO
TTITLE4=Planes
TTITLE5=Don't Blow Up The Planes
TTITLE6=Woke
TTITLE7=Rising
TTITLE8=I'll be Seeing You
EXTD=YEAR: 2014
EXTT0=
EXTT1=
EXTT2=
EXTT3=
EXTT4=
EXTT5=
EXTT6=
EXTT7=
EXTT8=
PLAYORDER=
